PathFileType	4	(X/Y/Z)	D:\TRACE\spot_10-12-23\spot_arm_body_motion_2_1-platform.trc
DataRate	CameraRate	NumFrames	NumMarkers	Units	OrigDataRate	OrigDataStartFrame	OrigNumFrames
100.00	100.00	      48	5	mm	100.00	6126	      7000
Frame#	Time	Left_Front			Right_Front			Left_Aft			Right_Aft			Post			
		X1	Y1	Z1	X2	Y2	Z2	X3	Y3	Z3	X4	Y4	Z4	X5	Y5	Z5	

6126	61.250	-763.00275	67.84778	-635.38196	804.26111	65.40107	-611.15509	-694.09332	-27.44905	499.30286	712.85315	-36.21002	600.65924	23.96278	820.49426	-883.67474	
6127	61.260	-764.25446	67.32795	-635.73834	803.27112	64.78866	-611.43695	-695.32343	-26.89936	499.11374	711.94312	-35.67690	601.00519	22.83527	819.47406	-885.10706	
6128	61.270	-765.24384	66.53853	-635.90149	802.29230	63.83065	-611.66284	-696.21429	-26.37373	499.06342	710.80920	-34.91528	600.76111	21.72141	818.24780	-886.33405	
6129	61.280	-766.25031	65.69733	-636.15973	801.41449	62.88753	-611.86383	-697.41547	-25.58191	498.73672	709.97461	-34.16345	600.60999	20.82489	816.86267	-887.28467	
6130	61.290	-767.27454	64.76894	-636.58447	800.33588	62.09282	-612.18774	-698.27014	-25.08449	498.74594	708.84253	-33.49491	600.46277	20.26518	815.58124	-888.28589	
6131	61.300	-768.25598	63.74611	-636.93646	799.21136	61.04398	-612.65948	-699.28442	-24.44352	498.54318	707.84552	-32.74515	600.23181	18.91329	814.26935	-889.36725	
6132	61.310	-769.33575	62.86749	-637.05182	798.13373	60.19205	-612.89642	-700.32361	-23.66693	498.29538	706.76569	-31.88980	600.06555	18.06868	812.89209	-890.17871	
6133	61.320	-770.36078	62.12004	-637.48969	797.08801	59.22623	-613.13348	-701.38641	-23.12559	498.12173	705.57642	-31.07110	599.75867	16.93494	811.56793	-891.17419	
6134	61.330	-771.58691	61.17939	-637.86084	796.02795	58.28009	-613.40820	-702.44470	-22.50587	497.94785	704.69159	-30.20761	599.64478	15.80360	810.22522	-892.44366	
6135	61.340	-772.36572	59.76781	-638.14459	794.90710	57.25528	-613.85956	-703.47064	-21.71821	497.75891	703.71802	-29.40608	599.48615	14.96356	808.81238	-893.86896	
6136	61.350	-773.57196	58.75852	-638.37903	793.82190	56.32426	-614.24817	-704.55261	-21.12639	497.52136	702.58588	-28.55600	599.27301	13.62955	807.43756	-895.29883	
6137	61.360	-774.65338	58.17231	-638.96204	792.69727	55.68417	-614.47168	-705.47803	-20.70740	497.72733	701.44446	-27.77137	598.67047	12.99894	805.87311	-896.95959	
6138	61.370	-775.71246	57.10252	-639.14209	791.79602	54.43879	-614.69818	-706.56769	-20.46386	497.65427	700.34521	-26.93593	598.92584	11.56441	804.45752	-898.68195	
6139	61.380	-776.78192	55.57562	-639.36212	790.65881	52.98019	-615.19690	-707.98871	-18.54388	496.45581	699.18054	-26.02351	598.58417	10.45583	803.29437	-900.78192	
6140	61.390	-778.17645	54.49539	-639.86951	789.55585	51.94479	-615.42365	-709.22217	-17.80563	496.08438	698.07263	-25.14464	598.39740	9.48191	801.74658	-902.81097	
6141	61.400	-779.15100	53.64819	-640.19122	788.41187	51.06026	-615.81750	-710.33136	-17.32674	495.93149	696.93481	-24.37593	598.11884	8.51578	800.00909	-904.52179	
6142	61.410	-780.16840	52.61374	-640.40344	787.30981	50.03558	-616.09528	-711.40607	-16.54039	495.62701	695.88934	-23.45882	597.99042	7.50365	798.46783	-906.03650	
6143	61.420	-781.19781	51.47710	-640.76459	786.24683	48.85155	-616.47162	-712.30591	-15.45302	495.44080	694.89594	-22.45968	597.88678	6.20862	797.12677	-907.95288	
6144	61.430	-782.49542	50.50588	-641.11450	785.15491	47.67924	-616.84460	-713.67535	-14.61931	495.19449	693.70844	-21.42460	597.12225	5.04608	795.61047	-909.52136	
6145	61.440	-783.51788	49.12764	-641.56873	783.86017	46.56044	-617.19928	-714.73224	-13.80518	494.83139	692.57886	-20.46226	597.36206	3.93985	793.62885	-911.11536	
6146	61.450	-784.66565	47.46289	-641.92212	782.80072	45.34919	-617.66736	-715.83032	-13.03944	494.66199	691.37494	-19.40912	596.88928	3.01346	791.53961	-912.60626	
6147	61.460	-785.87408	46.29866	-642.56537	781.63562	43.94370	-618.14392	-716.95880	-12.11725	494.48059	690.36438	-18.33801	596.66125	2.07557	789.54919	-914.03888	
6148	61.470	-786.88818	45.31575	-642.78271	780.51251	42.43007	-618.42444	-718.24396	-11.07031	494.08765	689.23431	-17.26134	596.47693	0.82304	787.78052	-915.56958	
6149	61.480	-787.98785	43.78907	-643.07147	779.44995	41.45673	-618.79816	-719.13275	-10.06488	493.85953	688.06958	-16.02937	595.69946	-0.65772	786.15021	-917.34949	
6150	61.490	-789.29071	42.55779	-643.75446	778.17865	40.12653	-619.25513	-720.60046	-9.13582	493.60587	686.89618	-14.99717	595.93402	-1.53228	784.12164	-919.31055	
6151	61.500	-790.40057	41.20526	-644.05743	776.97498	38.68141	-619.71216	-721.52728	-8.31670	493.27103	685.64056	-13.85505	595.49487	-2.95138	782.20599	-921.03021	
6152	61.510	-791.47211	39.84000	-644.28510	775.90674	37.34914	-620.02863	-722.70172	-7.39872	492.85428	684.73389	-12.94071	595.25519	-3.95943	780.40997	-923.18829	
6153	61.520	-792.61652	38.48027	-644.72076	774.91711	36.19901	-620.30005	-723.55615	-6.49088	492.64700	683.59808	-11.90605	595.01294	-4.79616	778.63049	-925.28979	
6154	61.530	-793.69189	37.34509	-645.24615	773.84210	35.03529	-620.72510	-724.86359	-5.46141	492.26331	682.56921	-10.66461	594.77740	-5.76740	776.82465	-927.38086	
6155	61.540	-794.78156	36.12252	-645.41907	772.57587	33.70119	-621.18091	-725.97351	-4.56911	491.93188	681.26959	-9.67363	594.49377	-6.94534	774.97058	-929.68622	
6156	61.550	-796.04102	34.84920	-645.87854	771.45386	32.23609	-621.51953	-727.11688	-3.65112	491.66437	680.07294	-8.57826	594.08667	-8.11923	773.05341	-931.99585	
6157	61.560	-797.19379	33.34856	-646.25360	770.32025	30.89361	-621.76862	-728.14532	-2.61955	491.31436	678.98938	-7.62822	593.82037	-9.42793	771.05145	-933.86469	
6158	61.570	-798.15955	31.85720	-646.68829	769.26697	29.64272	-622.20837	-729.43475	-1.95835	490.97318	677.87335	-6.44384	593.54626	-10.47592	769.24384	-935.86377	
6159	61.580	-799.09192	30.43063	-646.92450	768.05347	28.33865	-622.64349	-730.39056	-1.00775	490.67871	676.84058	-5.26234	593.31122	-11.48545	767.21478	-937.47546	
6160	61.590	-800.39270	29.48654	-647.50775	767.04565	27.02021	-623.04047	-731.61322	0.07850	490.44623	675.65631	-4.08097	592.92657	-12.80408	765.22986	-939.12097	
6161	61.600	-801.31879	27.81936	-647.79486	765.96954	25.47335	-623.31982	-732.63666	1.12843	490.15558	674.62085	-2.95591	592.52972	-13.84899	763.17621	-940.78632	
6162	61.610	-802.36090	26.20786	-648.10358	764.77869	23.90101	-623.80212	-734.14795	2.61283	489.99228	673.53925	-1.79935	592.20770	-14.42264	760.97876	-942.29633	
6163	61.620	-803.51282	24.78097	-648.57690	763.70703	22.48297	-624.18683	-734.88739	2.89240	489.53448	672.41278	-0.69883	591.99219	-15.84012	759.00012	-943.78094	
6164	61.630	-804.65271	23.43392	-649.11993	762.43652	20.84605	-624.53998	-735.96246	4.11115	489.45038	671.33435	0.62385	591.73022	-16.82567	756.77203	-945.61041	
6165	61.640	-805.67834	21.99478	-649.24841	761.62799	19.69278	-624.89661	-736.92725	4.99799	489.36337	670.23682	1.79715	591.33783	-17.90945	754.88165	-947.47748	
6166	61.650	-806.67065	20.73888	-649.80951	760.53101	18.39952	-625.33966	-738.18518	6.01259	488.85660	669.19135	3.00458	590.86041	-19.12591	752.86652	-949.48981	
6167	61.660	-807.87225	19.17910	-650.25409	759.40350	16.87561	-625.69092	-739.11139	6.91451	488.52396	668.33264	4.01496	590.60089	-20.28389	750.67798	-951.66583	
6168	61.670	-808.88251	17.56760	-650.61084	758.34241	15.35226	-626.04657	-740.20923	7.79919	488.20233	667.08069	5.12102	590.31067	-21.21733	748.47888	-953.95599	
6169	61.680	-809.85187	16.25184	-650.83826	757.39813	13.94709	-626.33972	-741.03119	8.78320	487.88306	666.05261	6.34926	589.98499	-21.99329	746.41876	-956.27094	
6170	61.690	-810.91931	14.88231	-651.09680	756.37225	12.72949	-626.70074	-742.10315	9.73633	487.42670	664.95807	7.51090	589.71240	-23.14047	744.49243	-958.45154	
6171	61.700	-812.02045	13.69808	-651.59509	755.26611	11.36246	-627.19318	-743.50916	10.92472	487.11847	664.01202	8.69779	589.21991	-23.95284	742.39435	-960.60760	
6172	61.710	-813.07092	12.35805	-651.98944	754.28674	9.99148	-627.42706	-744.24884	11.69077	486.67920	662.96576	9.62127	588.88214	-24.82061	740.20581	-962.72247	
6173	61.720	-813.81122	10.48220	-652.19629	753.18872	8.30784	-627.73291	-745.26050	12.70379	486.35764	662.00977	10.91305	588.53125	-26.01293	738.10767	-964.72797	
